<?xml version="1.0" encoding="UTF-8"?>
<!DOCTYPE svg PUBLIC "-//W3C//DTD SVG 1.1//EN" "http://www.w3.org/Graphics/SVG/1.1/DTD/svg11.dtd">
<svg xmlns="http://www.w3.org/2000/svg" version="1.1" width="1024px" height="1024px" style="shape-rendering:geometricPrecision; text-rendering:geometricPrecision; image-rendering:optimizeQuality; fill-rule:evenodd; clip-rule:evenodd" xmlns:xlink="http://www.w3.org/1999/xlink">
<g><path style="opacity:1" fill="#fefefe" d="M -0.5,-0.5 C 340.833,-0.5 682.167,-0.5 1023.5,-0.5C 1023.5,340.833 1023.5,682.167 1023.5,1023.5C 682.167,1023.5 340.833,1023.5 -0.5,1023.5C -0.5,682.167 -0.5,340.833 -0.5,-0.5 Z"/></g>
<g><path style="opacity:1" fill="#7786ab" d="M 611.5,245.5 C 554.833,245.5 498.167,245.5 441.5,245.5C 441.5,256.833 441.5,268.167 441.5,279.5C 440.505,268.012 440.172,256.345 440.5,244.5C 497.669,244.168 554.669,244.501 611.5,245.5 Z"/></g>
<g><path style="opacity:1" fill="#7282a8" d="M 830.5,245.5 C 878.664,244.501 926.997,244.168 975.5,244.5C 975.828,256.012 975.495,267.346 974.5,278.5C 974.5,267.5 974.5,256.5 974.5,245.5C 926.5,245.5 878.5,245.5 830.5,245.5 Z"/></g>
<g><path style="opacity:1" fill="#082271" d="M 611.5,245.5 C 611.5,245.833 611.5,246.167 611.5,246.5C 555.472,246.508 499.139,246.508 442.5,246.5C 442.5,257.167 442.5,267.833 442.5,278.5C 447.317,277.89 449.317,278.223 448.5,279.5C 446.167,279.5 443.833,279.5 441.5,279.5C 441.5,268.167 441.5,256.833 441.5,245.5C 498.167,245.5 554.833,245.5 611.5,245.5 Z"/></g>
<g><path style="opacity:1" fill="#082371" d="M 830.5,245.5 C 878.5,245.5 926.5,245.5 974.5,245.5C 974.5,256.5 974.5,267.5 974.5,278.5C 973.5,278.5 972.5,278.5 971.5,278.5C 970.127,278.657 968.793,278.49 967.5,278C 969.473,277.505 971.473,277.338 973.5,277.5C 973.5,267.167 973.5,256.833 973.5,246.5C 925.664,246.832 877.997,246.499 830.5,245.5 Z"/></g>
<g><path style="opacity:1" fill="#18377b" d="M 830.5,245.5 C 877.997,246.499 925.664,246.832 973.5,246.5C 973.5,256.833 973.5,267.167 973.5,277.5C 971.473,277.338 969.473,277.505 967.5,278C 968.793,278.49 970.127,278.657 971.5,278.5C 958.084,278.362 946.251,282.696 936,291.5C 931.961,297.576 929.628,304.242 929,311.5C 928.5,343.165 928.333,374.832 928.5,406.5C 896.833,406.5 865.167,406.5 833.5,406.5C 833.831,376.329 833.498,346.329 832.5,316.5C 831.508,316.328 830.842,316.662 830.5,317.5C 819.722,347.72 808.389,377.72 796.5,407.5C 786.985,407.827 777.652,407.494 768.5,406.5C 788.403,352.444 809.07,298.778 830.5,245.5 Z"/></g>
<g><path style="opacity:1" fill="#18377b" d="M 359.5,245.5 C 373.323,246.496 387.323,246.829 401.5,246.5C 401.5,299.5 401.5,352.5 401.5,405.5C 390.116,404.856 379.116,405.523 368.5,407.5C 357.198,355.062 329.198,314.228 284.5,285C 252.34,266.882 218.34,262.215 182.5,271C 149.287,283.596 136.787,307.096 145,341.5C 151.777,354.908 161.61,365.408 174.5,373C 204.799,387.993 236.466,399.16 269.5,406.5C 249.833,407.167 230.167,407.833 210.5,408.5C 161.832,408.667 113.166,408.5 64.5,408C 59.3101,397.092 56.1435,385.592 55,373.5C 50.0845,318.48 71.9178,278.313 120.5,253C 150.672,239.165 182.339,233.498 215.5,236C 252.292,238.615 287.292,247.948 320.5,264C 340.029,270.905 353.029,264.738 359.5,245.5 Z"/></g>
<g><path style="opacity:1" fill="#18377b" d="M 611.5,246.5 C 632.264,299.114 652.264,352.114 671.5,405.5C 635.567,406.826 599.567,406.826 563.5,405.5C 562.977,402.825 561.977,401.158 560.5,400.5C 549.793,372.56 538.959,344.56 528,316.5C 527.5,347.165 527.333,377.832 527.5,408.5C 515.833,408.5 504.167,408.5 492.5,408.5C 492.667,375.832 492.5,343.165 492,310.5C 490.372,297.55 483.539,288.716 471.5,284C 463.724,282.349 456.057,280.849 448.5,279.5C 449.317,278.223 447.317,277.89 442.5,278.5C 442.5,267.833 442.5,257.167 442.5,246.5C 499.139,246.508 555.472,246.508 611.5,246.5 Z"/></g>
<g><path style="opacity:1" fill="#4e6394" d="M 359.5,245.5 C 373.99,244.504 388.657,244.171 403.5,244.5C 403.832,299.003 403.499,353.336 402.5,407.5C 402.5,353.5 402.5,299.5 402.5,245.5C 388.167,245.5 373.833,245.5 359.5,245.5 Z"/></g>
<g><path style="opacity:1" fill="#0f2b76" d="M 359.5,245.5 C 373.833,245.5 388.167,245.5 402.5,245.5C 402.5,299.5 402.5,353.5 402.5,407.5C 391.167,407.5 379.833,407.5 368.5,407.5C 379.116,405.523 390.116,404.856 401.5,405.5C 401.5,352.5 401.5,299.5 401.5,246.5C 387.323,246.829 373.323,246.496 359.5,245.5 Z"/></g>
<g><path style="opacity:1" fill="#d1d6de" d="M 830.5,317.5 C 830.842,316.662 831.508,316.328 832.5,316.5C 832.5,347.167 832.5,377.833 832.5,408.5C 831.833,378.167 831.167,347.833 830.5,317.5 Z"/></g>
<g><path style="opacity:1" fill="#0b2976" d="M 671.5,405.5 C 671.5,405.833 671.5,406.167 671.5,406.5C 635.337,407.498 599.004,407.832 562.5,407.5C 561.833,405.167 561.167,402.833 560.5,400.5C 561.977,401.158 562.977,402.825 563.5,405.5C 599.567,406.826 635.567,406.826 671.5,405.5 Z"/></g>
<g><path style="opacity:1" fill="#1c3278" d="M 832.5,316.5 C 833.498,346.329 833.831,376.329 833.5,406.5C 865.167,406.5 896.833,406.5 928.5,406.5C 896.851,408.493 864.851,409.159 832.5,408.5C 832.5,377.833 832.5,347.167 832.5,316.5 Z"/></g>
<g><path style="opacity:1" fill="#8796b6" d="M 269.5,406.5 C 270.675,406.281 271.675,406.614 272.5,407.5C 251.844,408.5 231.177,408.833 210.5,408.5C 230.167,407.833 249.833,407.167 269.5,406.5 Z"/></g>
<g><path style="opacity:1" fill="#39518a" d="M 671.5,406.5 C 672.043,406.56 672.376,406.893 672.5,407.5C 635.669,408.83 599.002,408.83 562.5,407.5C 599.004,407.832 635.337,407.498 671.5,406.5 Z"/></g>
<g><path style="opacity:1" fill="#3d548b" d="M 768.5,406.5 C 777.652,407.494 786.985,407.827 796.5,407.5C 786.992,408.823 777.325,408.823 767.5,407.5C 767.624,406.893 767.957,406.56 768.5,406.5 Z"/></g>
<g><path style="opacity:1" fill="#b4dbbf" d="M 379.5,439.5 C 380.49,445.645 380.823,451.978 380.5,458.5C 385.363,458.181 390.03,458.514 394.5,459.5C 389.5,459.5 384.5,459.5 379.5,459.5C 379.5,452.833 379.5,446.167 379.5,439.5 Z"/></g>
<g><path style="opacity:1" fill="#1a9b3b" d="M 379.5,439.5 C 379.5,446.167 379.5,452.833 379.5,459.5C 384.5,459.5 389.5,459.5 394.5,459.5C 394.5,464.167 394.5,468.833 394.5,473.5C 389.5,473.5 384.5,473.5 379.5,473.5C 379.173,483.681 379.506,493.681 380.5,503.5C 380.019,507.349 381.686,509.349 385.5,509.5C 387.607,510.468 389.941,510.802 392.5,510.5C 392.5,515.167 392.5,519.833 392.5,524.5C 384.298,526.282 376.298,525.782 368.5,523C 365.836,520.331 364.002,517.164 363,513.5C 362.5,500.171 362.333,486.837 362.5,473.5C 359.5,473.5 356.5,473.5 353.5,473.5C 353.5,468.833 353.5,464.167 353.5,459.5C 356.5,459.5 359.5,459.5 362.5,459.5C 362.334,454.156 362.501,448.823 363,443.5C 368.351,441.621 373.851,440.287 379.5,439.5 Z"/></g>
<g><path style="opacity:1" fill="#1d9d3d" d="M 472.5,432.5 C 478.509,432.334 484.509,432.501 490.5,433C 500.28,448.601 510.613,463.767 521.5,478.5C 531.873,463.59 541.873,448.424 551.5,433C 557.491,432.501 563.491,432.334 569.5,432.5C 569.5,463.167 569.5,493.833 569.5,524.5C 563.167,524.5 556.833,524.5 550.5,524.5C 550.667,506.497 550.5,488.497 550,470.5C 542.291,482.752 534.458,494.918 526.5,507C 521.676,509.446 517.509,508.613 514,504.5C 507,493.5 500,482.5 493,471.5C 492.5,489.164 492.333,506.83 492.5,524.5C 485.833,524.5 479.167,524.5 472.5,524.5C 472.5,493.833 472.5,463.167 472.5,432.5 Z"/></g>
<g><path style="opacity:1" fill="#1e9d3e" d="M 909.5,457.5 C 912.5,457.5 915.5,457.5 918.5,457.5C 918.5,462.833 918.5,468.167 918.5,473.5C 911.079,472.803 905.246,475.469 901,481.5C 899.551,495.761 899.051,510.094 899.5,524.5C 893.167,524.5 886.833,524.5 880.5,524.5C 880.5,502.833 880.5,481.167 880.5,459.5C 886.5,459.5 892.5,459.5 898.5,459.5C 898.34,461.199 898.506,462.866 899,464.5C 902.154,461.488 905.654,459.155 909.5,457.5 Z"/></g>
<g><path style="opacity:1" fill="#229d40" d="M 332.5,457.5 C 335.777,457.216 338.943,457.549 342,458.5C 342.667,463.5 342.667,468.5 342,473.5C 334.673,473.489 329.006,476.489 325,482.5C 323.553,496.427 323.053,510.427 323.5,524.5C 317.167,524.5 310.833,524.5 304.5,524.5C 304.5,502.833 304.5,481.167 304.5,459.5C 310.5,459.5 316.5,459.5 322.5,459.5C 322.34,461.199 322.506,462.866 323,464.5C 326.068,461.917 329.235,459.584 332.5,457.5 Z"/></g>
<g><path style="opacity:1" fill="#1c9d3d" d="M 421.5,456.5 C 430.284,455.647 438.618,457.147 446.5,461C 452.325,465.816 454.992,471.983 454.5,479.5C 448.833,479.5 443.167,479.5 437.5,479.5C 437.312,474.311 434.645,471.978 429.5,472.5C 423.992,471.839 421.825,474.172 423,479.5C 430.154,483.167 437.654,486 445.5,488C 455.918,495.216 458.418,504.716 453,516.5C 449.687,521.239 445.187,524.072 439.5,525C 432.086,525.89 424.753,525.557 417.5,524C 408.446,519.73 404.112,512.564 404.5,502.5C 409.844,502.334 415.177,502.501 420.5,503C 422.44,510.306 427.107,512.973 434.5,511C 438.87,509.022 439.536,506.189 436.5,502.5C 427.983,499.827 419.65,496.661 411.5,493C 402.247,482.607 402.247,472.274 411.5,462C 414.767,459.87 418.1,458.037 421.5,456.5 Z"/></g>
<g><path style="opacity:1" fill="#1b9c3c" d="M 698.5,457.5 C 702.167,457.5 705.833,457.5 709.5,457.5C 709.5,462.833 709.5,468.167 709.5,473.5C 700.651,472.507 694.151,475.84 690,483.5C 688.554,497.093 688.054,510.76 688.5,524.5C 682.5,524.5 676.5,524.5 670.5,524.5C 670.5,502.833 670.5,481.167 670.5,459.5C 676.5,459.5 682.5,459.5 688.5,459.5C 688.34,461.199 688.506,462.866 689,464.5C 692.068,461.917 695.235,459.584 698.5,457.5 Z"/></g>
<g><path style="opacity:1" fill="#1b9c3c" d="M 79.5,431.5 C 90.9494,430.156 101.616,432.323 111.5,438C 118.242,443.987 121.242,451.487 120.5,460.5C 114.463,460.829 108.463,460.496 102.5,459.5C 101.608,456.716 100.442,454.05 99,451.5C 93.3514,449.512 87.518,449.012 81.5,450C 78.6403,453.681 77.8069,457.848 79,462.5C 79.8333,463.333 80.6667,464.167 81.5,465C 91.3114,468.271 100.978,471.937 110.5,476C 122.153,483.814 125.987,494.648 122,508.5C 117.556,516.942 110.723,522.442 101.5,525C 92.4236,525.913 83.4236,525.58 74.5,524C 62.025,518.676 55.6917,509.176 55.5,495.5C 62.1667,495.5 68.8333,495.5 75.5,495.5C 75.3222,502.658 78.6555,507.158 85.5,509C 90.8945,510.033 95.8945,509.033 100.5,506C 102.045,504.178 102.712,502.011 102.5,499.5C 102.949,496.363 101.949,493.863 99.5,492C 89.6446,488.788 79.978,485.121 70.5,481C 59.3977,474.278 55.231,464.445 58,451.5C 61.7367,441.064 68.9033,434.397 79.5,431.5 Z"/></g>
<g><path style="opacity:1" fill="#1a9c3c" d="M 726.5,432.5 C 732.833,432.5 739.167,432.5 745.5,432.5C 745.333,450.17 745.5,467.836 746,485.5C 753.716,476.573 761.549,467.739 769.5,459C 777.167,458.333 784.833,458.333 792.5,459C 784.242,467.417 776.576,476.25 769.5,485.5C 776.614,498.385 783.781,511.052 791,523.5C 784.557,525.867 778.057,526.034 771.5,524C 765.855,517.213 761.355,509.713 758,501.5C 755.451,498.994 752.951,499.16 750.5,502C 748.383,503.731 746.883,505.898 746,508.5C 745.501,513.823 745.334,519.156 745.5,524.5C 739.167,524.5 732.833,524.5 726.5,524.5C 726.5,493.833 726.5,463.167 726.5,432.5 Z"/></g>
<g><path style="opacity:1" fill="#1a9c3c" d="M 612.5,456.5 C 622.103,455.764 631.103,457.598 639.5,462C 643.145,465.453 645.645,469.62 647,474.5C 647.333,486.5 647.667,498.5 648,510.5C 648.389,515.056 649.555,519.39 651.5,523.5C 645.5,524.833 639.5,524.833 633.5,523.5C 632.764,521.459 631.931,519.459 631,517.5C 621.735,525.881 611.235,527.715 599.5,523C 587.984,512.225 587.65,501.225 598.5,490C 607.944,485.31 617.944,482.644 628.5,482C 629.636,475.295 626.636,472.128 619.5,472.5C 614.216,472.764 610.55,475.43 608.5,480.5C 602.872,481.495 597.206,481.829 591.5,481.5C 593.113,468.591 600.113,460.257 612.5,456.5 Z"/></g>
<g><path style="opacity:1" fill="#92cba0" d="M 394.5,473.5 C 390.03,474.486 385.363,474.819 380.5,474.5C 380.5,484.167 380.5,493.833 380.5,503.5C 379.506,493.681 379.173,483.681 379.5,473.5C 384.5,473.5 389.5,473.5 394.5,473.5 Z"/></g>
<g><path style="opacity:1" fill="#1a9c3c" d="M 863.5,496.5 C 847.819,496.167 832.152,496.501 816.5,497.5C 816.624,498.107 816.957,498.44 817.5,498.5C 819.358,508.491 825.358,512.324 835.5,510C 838.446,509.194 841.112,507.861 843.5,506C 849.196,505.17 854.863,505.337 860.5,506.5C 858.037,516.13 852.037,522.297 842.5,525C 815.809,529.464 801.142,518.297 798.5,491.5C 801.372,464.136 816.372,452.969 843.5,458C 859.897,465.612 866.564,478.446 863.5,496.5 Z"/></g>
<g><path style="opacity:1" fill="#f6fbf7" d="M 824.5,472.5 C 830.434,471.889 836.1,472.722 841.5,475C 844.076,477.651 845.409,480.818 845.5,484.5C 835.833,484.5 826.167,484.5 816.5,484.5C 817.159,479.172 819.826,475.172 824.5,472.5 Z"/></g>
<g><path style="opacity:1" fill="#1a9c3c" d="M 155.5,548.5 C 149.833,548.5 144.167,548.5 138.5,548.5C 138.5,518.833 138.5,489.167 138.5,459.5C 143.833,459.5 149.167,459.5 154.5,459.5C 154.338,461.527 154.505,463.527 155,465.5C 166.79,454.719 179.623,453.553 193.5,462C 204.178,471.523 208.011,483.356 205,497.5C 200.793,519.364 187.626,528.531 165.5,525C 162.671,523.753 160.005,522.253 157.5,520.5C 155.726,529.734 155.06,539.067 155.5,548.5 Z"/></g>
<g><path style="opacity:1" fill="#fbfdfc" d="M 165.5,472.5 C 185.31,472.827 192.143,482.494 186,501.5C 180.176,510.771 172.343,512.938 162.5,508C 155.908,501.114 153.741,492.948 156,483.5C 158.314,479.025 161.48,475.358 165.5,472.5 Z"/></g>
<g><path style="opacity:1" fill="#f7fbf8" d="M 623.5,493.5 C 625.833,493.5 628.167,493.5 630.5,493.5C 631.109,504.051 626.276,510.384 616,512.5C 609.704,511.601 607.037,507.934 608,501.5C 612.361,497.071 617.528,494.404 623.5,493.5 Z"/></g>
<g><path style="opacity:1" fill="#c6e3ce" d="M 863.5,496.5 C 848.167,497.167 832.833,497.833 817.5,498.5C 816.957,498.44 816.624,498.107 816.5,497.5C 832.152,496.501 847.819,496.167 863.5,496.5 Z"/></g>
<g><path style="opacity:1" fill="#1b9c3c" d="M 247.5,456.5 C 276.636,456.081 289.802,470.414 287,499.5C 284.014,512.485 276.181,520.985 263.5,525C 231.592,528.759 217.092,514.593 220,482.5C 223.999,468.269 233.166,459.602 247.5,456.5 Z"/></g>
<g><path style="opacity:1" fill="#fbfdfb" d="M 247.5,472.5 C 267.849,473.041 274.683,483.041 268,502.5C 259.4,513.42 250.067,514.087 240,504.5C 235.416,495.742 235.416,487.076 240,478.5C 242.478,476.361 244.978,474.361 247.5,472.5 Z"/></g>
<g><path style="opacity:1" fill="#1d9c3d" d="M 945.5,456.5 C 955.403,455.082 964.403,457.249 972.5,463C 976.97,467.574 978.97,473.074 978.5,479.5C 972.5,479.5 966.5,479.5 960.5,479.5C 961.03,473.883 958.53,471.55 953,472.5C 947.064,471.436 945.064,473.77 947,479.5C 955.008,483.22 963.174,486.72 971.5,490C 978.137,495.711 980.304,502.877 978,511.5C 973.399,522.222 965.232,526.888 953.5,525.5C 937.281,526.277 928.614,518.61 927.5,502.5C 933.167,502.5 938.833,502.5 944.5,502.5C 946.072,511.287 951.072,513.787 959.5,510C 962.532,505.82 961.532,502.82 956.5,501C 950.095,499.198 943.761,497.198 937.5,495C 934.333,493.167 931.833,490.667 930,487.5C 925.148,471.868 930.315,461.535 945.5,456.5 Z"/></g>
<g><path style="opacity:1" fill="#53ae69" d="M 138.5,459.5 C 138.5,489.167 138.5,518.833 138.5,548.5C 144.167,548.5 149.833,548.5 155.5,548.5C 149.69,549.49 143.69,549.823 137.5,549.5C 137.169,519.329 137.502,489.329 138.5,459.5 Z"/></g>
<g><path style="opacity:1" fill="#65b377" d="M 385.5,509.5 C 388.167,509.5 390.833,509.5 393.5,509.5C 393.821,514.695 393.487,519.695 392.5,524.5C 392.5,519.833 392.5,515.167 392.5,510.5C 389.941,510.802 387.607,510.468 385.5,509.5 Z"/></g>
<g><path style="opacity:1" fill="#b1baca" d="M 716.5,562.5 C 725.675,561.178 735.008,561.178 744.5,562.5C 744.376,563.107 744.043,563.44 743.5,563.5C 734.682,562.507 725.682,562.173 716.5,562.5 Z"/></g>
<g><path style="opacity:1" fill="#19377b" d="M 928.5,563.5 C 896.833,563.5 865.167,563.5 833.5,563.5C 833.333,593.169 833.5,622.835 834,652.5C 834.5,623.169 834.667,593.835 834.5,564.5C 865.5,564.5 896.5,564.5 927.5,564.5C 927.164,598.192 927.498,629.192 928.5,657.5C 929.522,681.19 941.856,694.19 965.5,696.5C 968.722,697.502 972.722,697.835 977.5,697.5C 977.5,707.167 977.5,716.833 977.5,726.5C 913.833,726.5 850.167,726.5 786.5,726.5C 786.5,716.833 786.5,707.167 786.5,697.5C 790.182,697.665 793.848,697.499 797.5,697C 796.207,696.51 794.873,696.343 793.5,696.5C 802.13,695.42 810.463,692.92 818.5,689C 825.327,683.857 829.493,677.023 831,668.5C 832.46,633.202 832.96,597.868 832.5,562.5C 864.671,562.168 896.671,562.502 928.5,563.5 Z"/></g>
<g><path style="opacity:1" fill="#18367b" d="M 716.5,562.5 C 725.682,562.173 734.682,562.507 743.5,563.5C 723.909,617.772 704.409,672.105 685,726.5C 683.302,727.733 681.302,728.4 679,728.5C 677.167,728.333 675.333,728.167 673.5,728C 653.94,673.156 634.274,618.323 614.5,563.5C 648.74,562.521 682.74,562.187 716.5,562.5 Z"/></g>
<g><path style="opacity:1" fill="#18377b" d="M 92.5,727.5 C 80.3446,726.505 68.0113,726.171 55.5,726.5C 55.5,672.5 55.5,618.5 55.5,564.5C 65.8333,564.5 76.1667,564.5 86.5,564.5C 86.6513,567.372 87.3179,569.372 88.5,570.5C 101.475,618.621 129.141,655.788 171.5,682C 205.182,699.753 240.182,703.087 276.5,692C 308.122,677.47 317.622,653.97 305,621.5C 292.597,606.107 277.097,594.94 258.5,588C 229.852,577.505 200.519,569.505 170.5,564C 249.166,563.5 327.833,563.333 406.5,563.5C 426.427,615.957 415.76,661.124 374.5,699C 343.871,722.101 309.205,734.101 270.5,735C 243.037,736.154 216.037,733.154 189.5,726C 168.193,719.121 147.193,711.454 126.5,703C 106.566,699.453 95.2324,707.62 92.5,727.5 Z"/></g>
<g><path style="opacity:1" fill="#09226f" d="M 492.5,563.5 C 504.345,563.172 516.012,563.505 527.5,564.5C 516.167,564.5 504.833,564.5 493.5,564.5C 493.667,599.168 493.5,633.835 493,668.5C 492.5,633.502 492.333,598.502 492.5,563.5 Z"/></g>
<g><path style="opacity:1" fill="#0e2a74" d="M 928.5,563.5 C 928.5,594.833 928.5,626.167 928.5,657.5C 927.498,629.192 927.164,598.192 927.5,564.5C 896.5,564.5 865.5,564.5 834.5,564.5C 834.667,593.835 834.5,623.169 834,652.5C 833.5,622.835 833.333,593.169 833.5,563.5C 865.167,563.5 896.833,563.5 928.5,563.5 Z"/></g>
<g><path style="opacity:1" fill="#2c4583" d="M 54.5,563.5 C 54.5,618.167 54.5,672.833 54.5,727.5C 67.1667,727.5 79.8333,727.5 92.5,727.5C 79.6774,728.495 66.6774,728.829 53.5,728.5C 53.1677,673.331 53.501,618.331 54.5,563.5 Z"/></g>
<g><path style="opacity:1" fill="#102e7a" d="M 54.5,563.5 C 65.5202,563.168 76.5202,563.501 87.5,564.5C 88.3482,566.409 88.6816,568.409 88.5,570.5C 87.3179,569.372 86.6513,567.372 86.5,564.5C 76.1667,564.5 65.8333,564.5 55.5,564.5C 55.5,618.5 55.5,672.5 55.5,726.5C 68.0113,726.171 80.3446,726.505 92.5,727.5C 79.8333,727.5 67.1667,727.5 54.5,727.5C 54.5,672.833 54.5,618.167 54.5,563.5 Z"/></g>
<g><path style="opacity:1" fill="#1a387c" d="M 492.5,563.5 C 492.333,598.502 492.5,633.502 493,668.5C 493.5,633.835 493.667,599.168 493.5,564.5C 504.833,564.5 516.167,564.5 527.5,564.5C 527.333,596.168 527.5,627.835 528,659.5C 527.869,682.198 539.036,694.531 561.5,696.5C 565.761,697.516 571.428,697.849 578.5,697.5C 578.5,707.167 578.5,716.833 578.5,726.5C 533.167,726.5 487.833,726.5 442.5,726.5C 442.5,716.833 442.5,707.167 442.5,697.5C 449.577,697.888 454.577,697.555 457.5,696.5C 468.601,695.869 478.101,691.536 486,683.5C 487.608,680.618 488.941,677.618 490,674.5C 491.141,637.378 491.975,600.378 492.5,563.5 Z"/></g>
<g><path style="opacity:1" fill="#1a3179" d="M 457.5,696.5 C 454.577,697.555 449.577,697.888 442.5,697.5C 442.5,707.167 442.5,716.833 442.5,726.5C 487.833,726.5 533.167,726.5 578.5,726.5C 578.5,716.833 578.5,707.167 578.5,697.5C 571.428,697.849 565.761,697.516 561.5,696.5C 567.5,696.5 573.5,696.5 579.5,696.5C 579.5,707.167 579.5,717.833 579.5,728.5C 533.5,728.5 487.5,728.5 441.5,728.5C 441.5,717.833 441.5,707.167 441.5,696.5C 446.833,696.5 452.167,696.5 457.5,696.5 Z"/></g>
<g><path style="opacity:1" fill="#0c2975" d="M 785.5,696.5 C 788.167,696.5 790.833,696.5 793.5,696.5C 794.873,696.343 796.207,696.51 797.5,697C 793.848,697.499 790.182,697.665 786.5,697.5C 786.5,707.167 786.5,716.833 786.5,726.5C 850.167,726.5 913.833,726.5 977.5,726.5C 977.5,716.833 977.5,707.167 977.5,697.5C 972.722,697.835 968.722,697.502 965.5,696.5C 969.833,696.5 974.167,696.5 978.5,696.5C 978.5,706.833 978.5,717.167 978.5,727.5C 914.167,727.5 849.833,727.5 785.5,727.5C 785.5,717.167 785.5,706.833 785.5,696.5 Z"/></g>
<g><path style="opacity:1" fill="#41558c" d="M 785.5,696.5 C 785.5,706.833 785.5,717.167 785.5,727.5C 849.833,727.5 914.167,727.5 978.5,727.5C 914.002,728.499 849.335,728.832 784.5,728.5C 784.172,717.654 784.506,706.987 785.5,696.5 Z"/></g>
</svg>
